<?xml version="1.0" ?><svg id="Layer_1" style="enable-background:new -239 241 32 32;" version="1.1" viewBox="-239 241 32 32" xml:space="preserve" xmlns="http://www.w3.org/2000/svg" xmlns:xlink="http://www.w3.org/1999/xlink"><style type="text/css">
	.st0{fill:#0677BB;}
	.st1{fill:#FFFFFF;}
</style><circle class="st0" cx="-223" cy="257" id="XMLID_1_" r="15.1"/><g id="XMLID_22_"><g id="XMLID_13_"><path class="st1" d="M-222.4,254.1l0.1,1.4c0.4-0.5,0.9-0.9,1.5-1.2c0.6-0.3,1.2-0.4,2-0.4c0.6,0,1.1,0.1,1.6,0.2    c0.5,0.2,0.9,0.4,1.2,0.8c0.3,0.4,0.6,0.8,0.8,1.4c0.2,0.6,0.3,1.3,0.3,2.2v6.5h-3.2v-6.6c0-0.4,0-0.7-0.1-1    c-0.1-0.3-0.2-0.5-0.4-0.6c-0.2-0.1-0.4-0.3-0.6-0.3c-0.2-0.1-0.5-0.1-0.8-0.1c-0.5,0-0.9,0.1-1.2,0.3c-0.3,0.2-0.6,0.5-0.8,0.8    v7.4h-3.2v-11H-222.4z" id="XMLID_16_"/></g><rect class="st1" height="11" id="XMLID_14_" width="3.2" x="-230.8" y="254"/><circle class="st1" cx="-229.5" cy="250.8" id="XMLID_18_" r="1.8"/></g></svg>